HIERARCHY
ROOT RootJoint
{
    OFFSET   0.000000   0.000000   0.000000
    CHANNELS 6 Xposition Yposition Zposition Xrotation Yrotation Zrotation
    JOINT pelvis_lowerback
    {
        OFFSET   0.000000   0.093605   0.000000
        CHANNELS 3 Xrotation Yrotation Zrotation
        JOINT lowerback_torso
        {
            OFFSET   0.000000   0.100000   0.000000
            CHANNELS 3 Xrotation Yrotation Zrotation
            JOINT torso_head
            {
                OFFSET   0.000000   0.282350   0.000000
                CHANNELS 3 Xrotation Yrotation Zrotation
                End Site
                {
                    OFFSET   0.000000   0.192650   0.000000
                }
            }
            JOINT rTorso_Clavicle
            {
                OFFSET  -0.001000   0.157500   0.000000
                CHANNELS 3 Xrotation Yrotation Zrotation
                JOINT rShoulder
                {
                    OFFSET  -0.117647   0.000000   0.000000
                    CHANNELS 3 Xrotation Yrotation Zrotation
                    JOINT rElbow
                    {
                        OFFSET  -0.245000   0.000000   0.000000
                        CHANNELS 3 Xrotation Yrotation Zrotation
                        JOINT rWrist
                        {
                            OFFSET  -0.240000   0.000000   0.000000
                            CHANNELS 3 Xrotation Yrotation Zrotation
                            End Site
                            {
                                OFFSET  -0.116353  -0.002500   0.000000
                            }
                        }
                    }
                }
            }
            JOINT lTorso_Clavicle
            {
                OFFSET   0.001000   0.157500   0.000000
                CHANNELS 3 Xrotation Yrotation Zrotation
                JOINT lShoulder
                {
                    OFFSET   0.117647   0.000000   0.000000
                    CHANNELS 3 Xrotation Yrotation Zrotation
                    JOINT lElbow
                    {
                        OFFSET   0.245000   0.000000   0.000000
                        CHANNELS 3 Xrotation Yrotation Zrotation
                        JOINT lWrist
                        {
                            OFFSET   0.240000   0.000000   0.000000
                            CHANNELS 3 Xrotation Yrotation Zrotation
                            End Site
                            {
                                OFFSET   0.116353  -0.002500   0.000000
                            }
                        }
                    }
                }
            }
        }
    }
    JOINT rHip
    {
        OFFSET  -0.100000  -0.051395   0.000000
        CHANNELS 3 Xrotation Yrotation Zrotation
        JOINT rKnee
        {
            OFFSET   0.000000  -0.410000   0.000000
            CHANNELS 3 Xrotation Yrotation Zrotation
            JOINT rAnkle
            {
                OFFSET   0.000000  -0.390000   0.000000
                CHANNELS 3 Xrotation Yrotation Zrotation
                JOINT rToeJoint
                {
                    OFFSET   0.000000  -0.050000   0.130000
                    CHANNELS 3 Xrotation Yrotation Zrotation
                    End Site
                    {
                        OFFSET  -0.010000   0.002000   0.060000
                    }
                }
            }
        }
    }
    JOINT lHip
    {
        OFFSET   0.100000  -0.051395   0.000000
        CHANNELS 3 Xrotation Yrotation Zrotation
        JOINT lKnee
        {
            OFFSET   0.000000  -0.410000   0.000000
            CHANNELS 3 Xrotation Yrotation Zrotation
            JOINT lAnkle
            {
                OFFSET   0.000000  -0.390000   0.000000
                CHANNELS 3 Xrotation Yrotation Zrotation
                JOINT lToeJoint
                {
                    OFFSET   0.000000  -0.050000   0.130000
                    CHANNELS 3 Xrotation Yrotation Zrotation
                    End Site
                    {
                        OFFSET   0.010000   0.002000   0.060000
                    }
                }
            }
        }
    }
}
MOTION
Frames: 17
Frame Time:   0.008333
 -2.307574   0.880836   4.198284   7.767530  17.720702  -3.385291   0.295719  11.717265  -0.000116   7.347775   6.321630   0.226993 -11.624232  -4.135322  -0.051734   0.231151   0.369674   6.988437   0.427422   4.998978  36.550010  -0.088764  53.724056   0.070139   2.015692   2.093995  -4.120448   6.910742  10.707385  -5.360742  27.846725   9.800670 -40.877330   0.019965 -44.528006  -0.016440   0.390052  -4.207099   3.452464   7.985110  -6.573671  -1.806981  49.602291   0.124743   0.026117   0.636069  -0.817122   9.070815 -14.057221   0.050671  -0.000418 -48.440817   3.717217  -9.493916  64.687061  -0.059104  -0.088083 -31.882895   1.832336   4.430896  -1.175979  -0.001402  -0.001591
 -2.303922   0.880519   4.210944   7.333727  18.910514  -3.517603   0.359602  11.345406   0.217687   7.364503   6.105798   0.317881 -11.496171  -4.169108   0.135512   0.297409   0.651205   7.407907   1.368014   5.122705  37.406446  -0.111973  51.857416   0.085604   2.042421   2.552040  -4.081431   6.888909  10.836802  -5.928226  26.925715   9.504448 -41.181447   0.019935 -45.078809  -0.018050   0.409002  -3.853313   3.783225   7.995438  -6.996831  -2.291501  53.501329   0.137149   0.004573   1.106457  -0.988023   8.901434 -12.824665   0.056616  -0.008377 -45.661868   3.224169  -9.688661  63.121105  -0.051729  -0.084851 -33.297600   1.632431   4.680788  -1.230635  -0.000968  -0.001711
 -2.300166   0.879506   4.223662   6.905008  20.130315  -3.612492   0.384616  10.916364   0.426970   7.384885   5.828373   0.402177 -11.358674  -4.197859   0.322766   0.390117   0.908107   7.848536   2.276733   5.221993  38.223600  -0.124704  50.048556   0.092805   2.037017   2.608331  -3.979168   6.796143  10.885537  -6.558378  26.003259   9.145440 -41.509571   0.020259 -45.629063  -0.018852   0.431961  -3.641595   4.067366   7.894545  -7.402479  -2.865803  57.435983   0.147434  -0.016522   1.543919  -1.154310   8.743301 -11.719917   0.059919  -0.014761 -42.798395   2.692505  -9.811299  61.877594  -0.044561  -0.079876 -34.613728   1.443262   4.912382  -1.303236  -0.000513  -0.001952
 -2.296403   0.877737   4.236368   6.543054  21.391810  -3.708112   0.355492  10.432699   0.623166   7.364845   5.487335   0.475255 -11.230835  -4.224857   0.502370   0.504971   1.118138   8.289139   3.149173   5.305308  39.004481  -0.128666  48.345746   0.093561   2.020871   2.533256  -3.831234   6.661780  10.877429  -7.202880  25.102570   8.758895 -41.844358   0.020530 -46.166826  -0.019012   0.460874  -3.569412   4.274776   7.665123  -7.764522  -3.477899  61.353487   0.155891  -0.035475   1.950639  -1.311279   8.596045 -10.714808   0.061435  -0.019466 -39.939442   2.137181  -9.845098  60.821801  -0.038325  -0.074731 -35.837530   1.263917   5.125882  -1.367058  -0.000140  -0.002095
 -2.292675   0.875157   4.249014   6.251892  22.696875  -3.810338   0.285143   9.904734   0.799704   7.307170   5.092694   0.534050 -11.115798  -4.250570   0.671881   0.633425   1.286102   8.712998   3.981039   5.375871  39.742375  -0.126641  46.749225   0.090466   2.001119   2.411020  -3.666399   6.498603  10.825558  -7.835889  24.230244   8.361614 -42.173274   0.020579 -46.687523  -0.018710   0.495231  -3.604340   4.428800   7.332297  -8.082645  -4.111619  65.245349   0.162774  -0.052360   2.328179  -1.459117   8.458917  -9.800898   0.061583  -0.022801 -37.120852   1.572439  -9.791174  59.901035  -0.033080  -0.069771 -36.976460   1.093936   5.322649  -1.421891   0.000148  -0.002156
 -2.289001   0.871727   4.261564   6.028547  24.043746  -3.919988   0.186168   9.344606   0.952556   7.220901   4.656797   0.576942 -11.012718  -4.275123   0.830604   0.769114   1.418968   9.110034   4.770171   5.436000  40.432950  -0.120838  45.254330   0.085378   1.980031   2.267023  -3.503660   6.314347  10.739433  -8.443133  23.389149   7.963427 -42.488852   0.020351 -47.188731  -0.018106   0.534372  -3.721216   4.551727   6.921403  -8.358157  -4.758624  69.113359   0.168347  -0.067495   2.678621  -1.598279   8.331193  -8.969898   0.060706  -0.025074 -34.368212   1.009193  -9.656591  59.089038  -0.028726  -0.065033 -38.036952   0.932896   5.504104  -1.469339   0.000363  -0.002157
 -2.285393   0.867425   4.273984   5.869759  25.429443  -4.037180   0.068810   8.764000   1.080006   7.114401   4.191668   0.603481 -10.920154  -4.298546   0.978482   0.907620   1.523238   9.475424   5.516017   5.487555  41.074837  -0.112875  43.855509   0.079505   1.958502   2.111081  -3.353942   6.114700  10.626983  -9.017385  22.580920   7.570618 -42.787453   0.019849 -47.669118  -0.017336   0.577601  -3.901359   4.658277   6.454487  -8.592675  -5.412776  72.961013   0.172824  -0.081204   3.004017  -1.729250   8.212185  -8.214040   0.059075  -0.026536 -31.700779   0.456112  -9.451205  58.368699  -0.025138  -0.060498 -39.024798   0.780383   5.671584  -1.511113   0.000518  -0.002120
 -2.282137   0.862706   4.285430   5.909748  26.878756  -4.058351   0.110746   8.108679   1.085133   6.935153   3.821227   0.402150 -11.011652  -4.279136   1.160582   0.882051   1.554383   9.801030   6.175159   5.525200  41.735156  -0.108339  42.079654   0.077338   1.999440   2.160436  -3.106305   5.963046  10.524225  -9.522770  21.235394   7.040602 -42.958554   0.021293 -48.826527  -0.024111   0.610633  -3.408854   4.667074   5.329949  -9.082380  -6.381180  77.029706   0.169408  -0.100792   3.182127  -1.802072   8.151383  -7.431559   0.056043  -0.028882 -28.980637  -0.267475  -9.389791  56.931678  -0.023276  -0.063921 -40.095616   0.503597   6.125455  -1.547683   0.000714  -0.001967
 -2.279261   0.857290   4.296457   6.017857  28.399379  -4.105852   0.224928   7.415462   1.061322   6.769050   3.392213   0.174050 -11.093328  -4.254019   1.323678   0.851619   1.592684  10.070862   6.788757   5.559123  42.326732  -0.101676  40.402143   0.075250   2.030201   2.068218  -2.875276   5.701107  10.312755  -9.978473  19.876546   6.450491 -43.107273   0.022203 -49.986614  -0.028091   0.666293  -3.302247   4.740988   3.929365  -9.546064  -7.344379  81.053729   0.164631  -0.115189   3.343820  -1.868867   8.097082  -6.741386   0.052260  -0.029548 -26.255888  -1.015585  -9.239303  55.468897  -0.021945  -0.067924 -41.097165   0.236031   6.545215  -1.580649   0.000851  -0.001835
 -2.276643   0.851057   4.307256   6.163726  29.971314  -4.169830   0.380487   6.688790   1.007458   6.627823   2.906385  -0.059077 -11.158686  -4.229565   1.475388   0.823204   1.623373  10.296471   7.362375   5.590125  42.862094  -0.093318  38.834413   0.072257   2.059050   1.944480  -2.665920   5.383929  10.034281 -10.389790  18.549776   5.845285 -43.238150   0.022634 -51.103695  -0.029581   0.738337  -3.416090   4.838508   2.369598  -9.941295  -8.297350  85.012324   0.160125  -0.125084   3.490314  -1.930951   8.047072  -6.127410   0.048357  -0.029100 -23.548407  -1.754097  -9.000264  54.114067  -0.020823  -0.070672 -42.029244  -0.019384   6.933512  -1.606756   0.000906  -0.001685
 -2.274197   0.843945   4.317914   6.339382  31.577002  -4.245093   0.558191   5.941196   0.929068   6.508588   2.380449  -0.292668 -11.211984  -4.207052   1.615867   0.803004   1.638770  10.486563   7.903073   5.613221  43.348936  -0.084146  37.368737   0.068521   2.086542   1.809799  -2.483243   5.039692   9.720536 -10.757472  17.273493   5.247354 -43.355182   0.022563 -52.167067  -0.029544   0.819797  -3.650537   4.950766   0.712953 -10.259114  -9.244852  88.913759   0.156283  -0.131849   3.623260  -1.989068   8.000587  -5.580130   0.044530  -0.027991 -20.876097  -2.472390  -8.685320  52.887047  -0.019798  -0.071778 -42.896214  -0.262621   7.293071  -1.629494   0.000923  -0.001542
 -2.271870   0.835923   4.328479   6.543049  33.203739  -4.331303   0.745715   5.186065   0.833147   6.407246   1.830574  -0.523920 -11.256844  -4.186636   1.745204   0.794456   1.636529  10.646986   8.416017   5.625830  43.792877  -0.074870  35.996870   0.064420   2.112238   1.661828  -2.327271   4.685152   9.391887 -11.085004  16.056582   4.668748 -43.462089   0.021996 -53.173203  -0.028738   0.906546  -3.953538   5.075387  -0.996072 -10.500719 -10.184098  92.769350   0.153110  -0.136484   3.744196  -2.043697   7.957205  -5.091830   0.040854  -0.026513 -18.254620  -3.164144  -8.306202  51.781600  -0.018865  -0.071362 -43.702644  -0.494009   7.626245  -1.650301   0.000917  -0.001413
 -2.269631   0.826978   4.338976   6.775356  34.841183  -4.429704   0.935198   4.435621   0.725535   6.320427   1.270745  -0.750897 -11.295676  -4.168178   1.863991   0.798411   1.617508  10.782476   8.904287   5.627687  44.198666  -0.065968  34.711780   0.060280   2.135926   1.497272  -2.195388   4.331085   9.061545 -11.377505  14.903204   4.116021 -43.562139   0.020963 -54.121483  -0.027667   0.995988  -4.294913   5.209591  -2.722837 -10.671760 -11.108109  96.589818   0.150466  -0.139642   3.854463  -2.095160   7.916641  -4.655875   0.037361  -0.024849 -15.697692  -3.824289  -7.874797  50.785920  -0.018036  -0.069692 -44.452890  -0.713935   7.935119  -1.669853   0.000898  -0.001299
 -2.268124   0.817620   4.348786   7.327871  36.079596  -4.886070   1.228794   3.892903   0.729379   5.926338   0.938373  -0.952254 -11.287275  -3.997329   1.944782   0.802005   1.346589  10.838053   9.561247   5.592996  44.309706  -0.054242  33.933763   0.053250   2.066475   1.410752  -1.747375   3.983775   8.823503 -11.359748  13.165289   3.560530 -43.611396   0.002415 -56.196681  -0.051744   0.908972  -3.565224   4.648984  -5.250422 -10.276920 -11.901607  99.943314   0.145512  -0.138150   4.013769  -1.988929   7.870007  -4.260520   0.033986  -0.022218 -13.035331  -4.451283  -6.979539  48.745344  -0.015843  -0.079916 -44.832120  -0.698292   8.162812  -1.914816   0.002895  -0.003192
 -2.266040   0.810257   4.358947   7.457665  37.044837  -4.673861   1.806627   3.374874   0.405003   5.691058   0.592961  -1.269755 -11.262270  -3.819673   2.002781   0.760080   1.139519  10.958384  10.141710   5.577000  44.387219  -0.044395  33.205948   0.045924   2.007306   1.376738  -1.396023   3.489026   8.464569 -11.292148  11.394389   2.954779 -43.565206  -0.012570 -58.197597  -0.064413   0.846724  -3.183109   4.392132  -7.894469  -9.563350 -13.140477 102.720244   0.133036  -0.132006   4.152774  -1.896617   7.821627  -3.915344   0.030086  -0.019516 -10.946997  -4.976868  -6.397755  48.622740  -0.012093  -0.065177 -45.244449  -0.782762   8.554768  -1.923449   0.002420  -0.002568
 -2.263617   0.803708   4.369830   7.446828  37.756154  -4.396983   2.349751   2.834025   0.137242   5.493619   0.213851  -1.567232 -11.208738  -3.650028   2.045919   0.724525   0.935225  11.003184  10.686554   5.557999  44.441438  -0.035326  32.537042   0.037570   1.954422   1.392498  -1.050540   2.981507   8.080755 -11.138485   9.700309   2.359239 -43.491595  -0.024333 -60.103044  -0.068384   0.808322  -3.045631   4.252150 -10.736596  -8.740557 -14.271671 105.135447   0.115022  -0.121283   4.271439  -1.814457   7.775463  -3.641593   0.025593  -0.016561  -8.608786  -5.525979  -5.604447  48.002868  -0.006679  -0.057475 -45.595420  -0.815891   8.844217  -2.068333   0.003513  -0.002184
 -2.260628   0.798512   4.381206   7.238630  38.594512  -3.895499   2.949078   2.143037  -0.141350   5.340215  -0.291592  -1.858705 -11.157314  -3.497580   2.081229   0.706158   0.714998  11.028078  11.207579   5.513451  44.465321  -0.027769  31.900305   0.029661   1.899226   1.363334  -0.799216   2.439246   7.634685 -10.963420   8.064546   1.758462 -43.395255  -0.032704 -61.893559  -0.067477   0.785181  -3.007260   4.197012 -13.567260  -7.958534 -15.378097 107.221596   0.099085  -0.107351   4.374592  -1.734502   7.736107  -3.410433   0.021630  -0.013639  -6.432383  -5.762530  -5.065387  47.232159  -0.004278  -0.053418 -46.945157  -0.729155   8.824618  -2.183207   0.003640  -0.002551
